# xmcd CD database file
#
# Track frame offsets:
#	150
#	18017
#	39264
#	60329
#	82674
#	102331
#	119445
#	136639
#	156085
#	179061
#	196571
#	208420
#
# Disc length: 2968 seconds
#
# Revision: 0
# Processed by: cddbd v1.4PL0 Copyright (c) Steve Scherf et al.
# Submitted via: CDex 1.40PlusFr
#
DISCID=8e0b960c
DTITLE=Tommy Castro - Right As Rain
DYEAR=1999
DGENRE=Blues
TTITLE0=Lucky In Love
TTITLE1=If I Had A Nickel
TTITLE2=Like An Angel
TTITLE3=Chairman Of The Board
TTITLE4=Right As Rain
TTITLE5=I've Got Tolove Somebody's Baby
TTITLE6=My Kind Of Woman
TTITLE7=Callin' San Francisco
TTITLE8=Just A Man
TTITLE9=Kickin' In
TTITLE10=Don't Turn Your Heater Down
TTITLE11=I Got To Change
EXTD=YEAR: 1999 ID3G: 0
EXTT0=
EXTT1=
EXTT2=
EXTT3=
EXTT4=
EXTT5=
EXTT6=
EXTT7=
EXTT8=
EXTT9=
EXTT10=
EXTT11=
PLAYORDER=
